  0
SECTION
  2
HEADER
  9
$ACADVER
  1
AC1009
  9
$FILLMODE
 70
1
  9
$EXTMIN
 10
-5.1160
 20
-5.1160
 30
0.0000
  9
$EXTMAX
 10
105.1160
 20
85.1160
 30
0.0000
  0
ENDSEC
  0
SECTION
  2
TABLES
  0
TABLE
  2
LTYPE
 70
1
  0
LTYPE
  2
CONTINUOUS
 70
64
  3
Solid line
 72
65
 73
0
 40
0
  0
ENDTAB
  0
TABLE
  2
LAYER
 70
255
  0
LAYER
  2
17
 70
64
 62
110
  6
CONTINUOUS
  0
LAYER
  2
31
 70
64
 62
3
  6
CONTINUOUS
  0
LAYER
  2
32
 70
64
 62
3
  6
CONTINUOUS
  0
LAYER
  2
39
 70
64
 62
12
  6
CONTINUOUS
  0
LAYER
  2
41
 70
64
 62
12
  6
CONTINUOUS
  0
LAYER
  2
116
 70
64
 62
253
  6
CONTINUOUS
  0
ENDTAB
  0
ENDSEC
  0
SECTION
  2
BLOCKS
  0
BLOCK
  8
0
  2
RECT
 70
64
 10
0.0000
 20
0.0000
 30
0.0000
  3
RECT
  0
SOLID
  8
0
 10
-0.5000
 20
-0.5000
 30
0.0000
 11
0.5000
 21
-0.5000
 31
0.0000
 12
-0.5000
 22
0.5000
 32
0.0000
 13
0.5000
 23
0.5000
 33
0.0000
  0
ENDBLK
  8
0
  0
BLOCK
  8
0
  2
PIE
 70
64
 10
0.0000
 20
0.0000
 30
0.0000
  3
PIE
  0
POLYLINE
  8
0
 66
1
 10
0.0000
 20
0.0000
 30
0.0000
 40
0.5000
 41
0.5000
 70
0
  0
VERTEX
  8
0
 10
0.0000
 20
-0.2500
 30
0.0000
 42
1.0000
  0
VERTEX
  8
0
 10
0.0000
 20
0.2500
 30
0.0000
 42
1.0000
  0
VERTEX
  8
0
 10
0.0000
 20
-0.2500
 30
0.0000
  0
SEQEND
  8
0
  0
ENDBLK
  8
0
  0
BLOCK
  8
0
  2
OCTAGONP
 70
64
 10
0.0000
 20
0.0000
 30
0.0000
  3
OCTAGONP
  0
POLYLINE
  8
0
 66
1
 10
0.0000
 20
0.0000
 30
0.0000
 40
0.5000
 41
0.5000
 70
0
  0
VERTEX
  8
0
 10
-0.2500
 20
-0.1036
 30
0.0000
  0
VERTEX
  8
0
 10
-0.2500
 20
0.1036
 30
0.0000
  0
VERTEX
  8
0
 10
-0.1036
 20
0.2500
 30
0.0000
  0
VERTEX
  8
0
 10
0.1036
 20
0.2500
 30
0.0000
  0
VERTEX
  8
0
 10
0.2500
 20
0.1036
 30
0.0000
  0
VERTEX
  8
0
 10
0.2500
 20
-0.1036
 30
0.0000
  0
VERTEX
  8
0
 10
0.1036
 20
-0.2500
 30
0.0000
  0
VERTEX
  8
0
 10
-0.1036
 20
-0.2500
 30
0.0000
  0
VERTEX
  8
0
 10
-0.2500
 20
-0.1036
 30
0.0000
  0
VERTEX
  8
0
 10
-0.2500
 20
0.1036
 30
0.0000
  0
SEQEND
  8
0
  0
ENDBLK
  8
0
  0
BLOCK
  8
0
  2
SQUAREP
 70
64
 10
0.0000
 20
0.0000
 30
0.0000
  3
SQUAREP
  0
SOLID
  8
0
 10
-0.5000
 20
-0.5000
 30
0.0000
 11
0.5000
 21
-0.5000
 31
0.0000
 12
-0.5000
 22
0.5000
 32
0.0000
 13
0.5000
 23
0.5000
 33
0.0000
  0
ENDBLK
  8
0
  0
BLOCK
  8
0
  2
ROUNDP
 70
64
 10
0.0000
 20
0.0000
 30
0.0000
  3
ROUNDP
  0
POLYLINE
  8
0
 66
1
 10
0.0000
 20
0.0000
 30
0.0000
 40
0.5000
 41
0.5000
 70
0
  0
VERTEX
  8
0
 10
0.0000
 20
-0.2500
 30
0.0000
 42
1.0000
  0
VERTEX
  8
0
 10
0.0000
 20
0.2500
 30
0.0000
 42
1.0000
  0
VERTEX
  8
0
 10
0.0000
 20
-0.2500
 30
0.0000
  0
SEQEND
  8
0
  0
ENDBLK
  8
0
  0
BLOCK
  8
0
  2
ANNULUSP
 70
64
 10
0.0000
 20
0.0000
 30
0.0000
  3
ANNULUSP
  0
POLYLINE
  8
0
 66
1
 10
0.0000
 20
0.0000
 30
0.0000
 40
0.5000
 41
0.5000
 70
0
  0
VERTEX
  8
0
 10
0.0000
 20
-0.2500
 30
0.0000
 42
1.0000
  0
VERTEX
  8
0
 10
0.0000
 20
0.2500
 30
0.0000
 42
1.0000
  0
VERTEX
  8
0
 10
0.0000
 20
-0.2500
 30
0.0000
  0
SEQEND
  8
0
  0
ENDBLK
  8
0
  0
BLOCK
  8
0
  2
THERMALP
 70
64
 10
0.0000
 20
0.0000
 30
0.0000
  3
THERMALP
  0
POLYLINE
  8
0
 66
1
 10
0.0000
 20
0.0000
 30
0.0000
 40
0.1000
 41
0.1000
 70
0
  0
VERTEX
  8
0
 10
-0.2379
 20
0.4500
 30
0.0000
  0
VERTEX
  8
0
 10
0.2379
 20
0.4500
 30
0.0000
  0
SEQEND
  8
0
  0
POLYLINE
  8
0
 66
1
 10
0.0000
 20
0.0000
 30
0.0000
 40
0.0500
 41
0.0500
 70
0
  0
VERTEX
  8
0
 10
0.2379
 20
0.4250
 30
0.0000
 42
1.0000
  0
VERTEX
  8
0
 10
0.2379
 20
0.4750
 30
0.0000
  0
SEQEND
  8
0
  0
POLYLINE
  8
0
 66
1
 10
0.0000
 20
0.0000
 30
0.0000
 40
0.0500
 41
0.0500
 70
0
  0
VERTEX
  8
0
 10
-0.2379
 20
0.4750
 30
0.0000
 42
1.0000
  0
VERTEX
  8
0
 10
-0.2379
 20
0.4250
 30
0.0000
  0
SEQEND
  8
0
  0
POLYLINE
  8
0
 66
1
 10
0.0000
 20
0.0000
 30
0.0000
 40
0.1000
 41
0.1000
 70
0
  0
VERTEX
  8
0
 10
0.4500
 20
0.2379
 30
0.0000
  0
VERTEX
  8
0
 10
0.4500
 20
-0.2379
 30
0.0000
  0
SEQEND
  8
0
  0
POLYLINE
  8
0
 66
1
 10
0.0000
 20
0.0000
 30
0.0000
 40
0.0500
 41
0.0500
 70
0
  0
VERTEX
  8
0
 10
0.4250
 20
-0.2379
 30
0.0000
 42
1.0000
  0
VERTEX
  8
0
 10
0.4750
 20
-0.2379
 30
0.0000
  0
SEQEND
  8
0
  0
POLYLINE
  8
0
 66
1
 10
0.0000
 20
0.0000
 30
0.0000
 40
0.0500
 41
0.0500
 70
0
  0
VERTEX
  8
0
 10
0.4750
 20
0.2379
 30
0.0000
 42
1.0000
  0
VERTEX
  8
0
 10
0.4250
 20
0.2379
 30
0.0000
  0
SEQEND
  8
0
  0
POLYLINE
  8
0
 66
1
 10
0.0000
 20
0.0000
 30
0.0000
 40
0.1000
 41
0.1000
 70
0
  0
VERTEX
  8
0
 10
0.2379
 20
-0.4500
 30
0.0000
  0
VERTEX
  8
0
 10
-0.2379
 20
-0.4500
 30
0.0000
  0
SEQEND
  8
0
  0
POLYLINE
  8
0
 66
1
 10
0.0000
 20
0.0000
 30
0.0000
 40
0.0500
 41
0.0500
 70
0
  0
VERTEX
  8
0
 10
-0.2379
 20
-0.4250
 30
0.0000
 42
1.0000
  0
VERTEX
  8
0
 10
-0.2379
 20
-0.4750
 30
0.0000
  0
SEQEND
  8
0
  0
POLYLINE
  8
0
 66
1
 10
0.0000
 20
0.0000
 30
0.0000
 40
0.0500
 41
0.0500
 70
0
  0
VERTEX
  8
0
 10
0.2379
 20
-0.4750
 30
0.0000
 42
1.0000
  0
VERTEX
  8
0
 10
0.2379
 20
-0.4250
 30
0.0000
  0
SEQEND
  8
0
  0
POLYLINE
  8
0
 66
1
 10
0.0000
 20
0.0000
 30
0.0000
 40
0.1000
 41
0.1000
 70
0
  0
VERTEX
  8
0
 10
-0.4500
 20
-0.2379
 30
0.0000
  0
VERTEX
  8
0
 10
-0.4500
 20
0.2379
 30
0.0000
  0
SEQEND
  8
0
  0
POLYLINE
  8
0
 66
1
 10
0.0000
 20
0.0000
 30
0.0000
 40
0.0500
 41
0.0500
 70
0
  0
VERTEX
  8
0
 10
-0.4250
 20
0.2379
 30
0.0000
 42
1.0000
  0
VERTEX
  8
0
 10
-0.4750
 20
0.2379
 30
0.0000
  0
SEQEND
  8
0
  0
POLYLINE
  8
0
 66
1
 10
0.0000
 20
0.0000
 30
0.0000
 40
0.0500
 41
0.0500
 70
0
  0
VERTEX
  8
0
 10
-0.4750
 20
-0.2379
 30
0.0000
 42
1.0000
  0
VERTEX
  8
0
 10
-0.4250
 20
-0.2379
 30
0.0000
  0
SEQEND
  8
0
  0
ENDBLK
  8
0
  0
BLOCK
  8
0
  2
OCTAGONV
 70
64
 10
0.0000
 20
0.0000
 30
0.0000
  3
OCTAGONV
  0
POLYLINE
  8
0
 66
1
 10
0.0000
 20
0.0000
 30
0.0000
 40
0.5000
 41
0.5000
 70
0
  0
VERTEX
  8
0
 10
-0.2500
 20
-0.1036
 30
0.0000
  0
VERTEX
  8
0
 10
-0.2500
 20
0.1036
 30
0.0000
  0
VERTEX
  8
0
 10
-0.1036
 20
0.2500
 30
0.0000
  0
VERTEX
  8
0
 10
0.1036
 20
0.2500
 30
0.0000
  0
VERTEX
  8
0
 10
0.2500
 20
0.1036
 30
0.0000
  0
VERTEX
  8
0
 10
0.2500
 20
-0.1036
 30
0.0000
  0
VERTEX
  8
0
 10
0.1036
 20
-0.2500
 30
0.0000
  0
VERTEX
  8
0
 10
-0.1036
 20
-0.2500
 30
0.0000
  0
VERTEX
  8
0
 10
-0.2500
 20
-0.1036
 30
0.0000
  0
VERTEX
  8
0
 10
-0.2500
 20
0.1036
 30
0.0000
  0
SEQEND
  8
0
  0
ENDBLK
  8
0
  0
BLOCK
  8
0
  2
SQUAREV
 70
64
 10
0.0000
 20
0.0000
 30
0.0000
  3
SQUAREV
  0
SOLID
  8
0
 10
-0.5000
 20
-0.5000
 30
0.0000
 11
0.5000
 21
-0.5000
 31
0.0000
 12
-0.5000
 22
0.5000
 32
0.0000
 13
0.5000
 23
0.5000
 33
0.0000
  0
ENDBLK
  8
0
  0
BLOCK
  8
0
  2
ROUNDV
 70
64
 10
0.0000
 20
0.0000
 30
0.0000
  3
ROUNDV
  0
POLYLINE
  8
0
 66
1
 10
0.0000
 20
0.0000
 30
0.0000
 40
0.5000
 41
0.5000
 70
0
  0
VERTEX
  8
0
 10
0.0000
 20
-0.2500
 30
0.0000
 42
1.0000
  0
VERTEX
  8
0
 10
0.0000
 20
0.2500
 30
0.0000
 42
1.0000
  0
VERTEX
  8
0
 10
0.0000
 20
-0.2500
 30
0.0000
  0
SEQEND
  8
0
  0
ENDBLK
  8
0
  0
BLOCK
  8
0
  2
ANNULUSV
 70
64
 10
0.0000
 20
0.0000
 30
0.0000
  3
ANNULUSV
  0
POLYLINE
  8
0
 66
1
 10
0.0000
 20
0.0000
 30
0.0000
 40
0.5000
 41
0.5000
 70
0
  0
VERTEX
  8
0
 10
0.0000
 20
-0.2500
 30
0.0000
 42
1.0000
  0
VERTEX
  8
0
 10
0.0000
 20
0.2500
 30
0.0000
 42
1.0000
  0
VERTEX
  8
0
 10
0.0000
 20
-0.2500
 30
0.0000
  0
SEQEND
  8
0
  0
ENDBLK
  8
0
  0
BLOCK
  8
0
  2
THERMALV
 70
64
 10
0.0000
 20
0.0000
 30
0.0000
  3
THERMALV
  0
POLYLINE
  8
0
 66
1
 10
0.0000
 20
0.0000
 30
0.0000
 40
0.1000
 41
0.1000
 70
0
  0
VERTEX
  8
0
 10
-0.2379
 20
0.4500
 30
0.0000
  0
VERTEX
  8
0
 10
0.2379
 20
0.4500
 30
0.0000
  0
SEQEND
  8
0
  0
POLYLINE
  8
0
 66
1
 10
0.0000
 20
0.0000
 30
0.0000
 40
0.0500
 41
0.0500
 70
0
  0
VERTEX
  8
0
 10
0.2379
 20
0.4250
 30
0.0000
 42
1.0000
  0
VERTEX
  8
0
 10
0.2379
 20
0.4750
 30
0.0000
  0
SEQEND
  8
0
  0
POLYLINE
  8
0
 66
1
 10
0.0000
 20
0.0000
 30
0.0000
 40
0.0500
 41
0.0500
 70
0
  0
VERTEX
  8
0
 10
-0.2379
 20
0.4750
 30
0.0000
 42
1.0000
  0
VERTEX
  8
0
 10
-0.2379
 20
0.4250
 30
0.0000
  0
SEQEND
  8
0
  0
POLYLINE
  8
0
 66
1
 10
0.0000
 20
0.0000
 30
0.0000
 40
0.1000
 41
0.1000
 70
0
  0
VERTEX
  8
0
 10
0.4500
 20
0.2379
 30
0.0000
  0
VERTEX
  8
0
 10
0.4500
 20
-0.2379
 30
0.0000
  0
SEQEND
  8
0
  0
POLYLINE
  8
0
 66
1
 10
0.0000
 20
0.0000
 30
0.0000
 40
0.0500
 41
0.0500
 70
0
  0
VERTEX
  8
0
 10
0.4250
 20
-0.2379
 30
0.0000
 42
1.0000
  0
VERTEX
  8
0
 10
0.4750
 20
-0.2379
 30
0.0000
  0
SEQEND
  8
0
  0
POLYLINE
  8
0
 66
1
 10
0.0000
 20
0.0000
 30
0.0000
 40
0.0500
 41
0.0500
 70
0
  0
VERTEX
  8
0
 10
0.4750
 20
0.2379
 30
0.0000
 42
1.0000
  0
VERTEX
  8
0
 10
0.4250
 20
0.2379
 30
0.0000
  0
SEQEND
  8
0
  0
POLYLINE
  8
0
 66
1
 10
0.0000
 20
0.0000
 30
0.0000
 40
0.1000
 41
0.1000
 70
0
  0
VERTEX
  8
0
 10
0.2379
 20
-0.4500
 30
0.0000
  0
VERTEX
  8
0
 10
-0.2379
 20
-0.4500
 30
0.0000
  0
SEQEND
  8
0
  0
POLYLINE
  8
0
 66
1
 10
0.0000
 20
0.0000
 30
0.0000
 40
0.0500
 41
0.0500
 70
0
  0
VERTEX
  8
0
 10
-0.2379
 20
-0.4250
 30
0.0000
 42
1.0000
  0
VERTEX
  8
0
 10
-0.2379
 20
-0.4750
 30
0.0000
  0
SEQEND
  8
0
  0
POLYLINE
  8
0
 66
1
 10
0.0000
 20
0.0000
 30
0.0000
 40
0.0500
 41
0.0500
 70
0
  0
VERTEX
  8
0
 10
0.2379
 20
-0.4750
 30
0.0000
 42
1.0000
  0
VERTEX
  8
0
 10
0.2379
 20
-0.4250
 30
0.0000
  0
SEQEND
  8
0
  0
POLYLINE
  8
0
 66
1
 10
0.0000
 20
0.0000
 30
0.0000
 40
0.1000
 41
0.1000
 70
0
  0
VERTEX
  8
0
 10
-0.4500
 20
-0.2379
 30
0.0000
  0
VERTEX
  8
0
 10
-0.4500
 20
0.2379
 30
0.0000
  0
SEQEND
  8
0
  0
POLYLINE
  8
0
 66
1
 10
0.0000
 20
0.0000
 30
0.0000
 40
0.0500
 41
0.0500
 70
0
  0
VERTEX
  8
0
 10
-0.4250
 20
0.2379
 30
0.0000
 42
1.0000
  0
VERTEX
  8
0
 10
-0.4750
 20
0.2379
 30
0.0000
  0
SEQEND
  8
0
  0
POLYLINE
  8
0
 66
1
 10
0.0000
 20
0.0000
 30
0.0000
 40
0.0500
 41
0.0500
 70
0
  0
VERTEX
  8
0
 10
-0.4750
 20
-0.2379
 30
0.0000
 42
1.0000
  0
VERTEX
  8
0
 10
-0.4250
 20
-0.2379
 30
0.0000
  0
SEQEND
  8
0
  0
ENDBLK
  8
0
  0
BLOCK
  8
0
  2
LONGP100
 70
64
 10
0.0000
 20
0.0000
 30
0.0000
  3
LONGP100
  0
POLYLINE
  8
0
 66
1
 10
0.0000
 20
0.0000
 30
0.0000
 40
1.0000
 41
1.0000
 70
0
  0
VERTEX
  8
0
 10
-0.5000
 20
0.0000
 30
0.0000
  0
VERTEX
  8
0
 10
0.5000
 20
0.0000
 30
0.0000
  0
SEQEND
  8
0
  0
POLYLINE
  8
0
 66
1
 10
0.0000
 20
0.0000
 30
0.0000
 40
0.5000
 41
0.5000
 70
0
  0
VERTEX
  8
0
 10
0.5000
 20
-0.2500
 30
0.0000
 42
1.0000
  0
VERTEX
  8
0
 10
0.5000
 20
0.2500
 30
0.0000
  0
SEQEND
  8
0
  0
POLYLINE
  8
0
 66
1
 10
0.0000
 20
0.0000
 30
0.0000
 40
0.5000
 41
0.5000
 70
0
  0
VERTEX
  8
0
 10
-0.5000
 20
0.2500
 30
0.0000
 42
1.0000
  0
VERTEX
  8
0
 10
-0.5000
 20
-0.2500
 30
0.0000
  0
SEQEND
  8
0
  0
ENDBLK
  8
0
  0
ENDSEC
  0
SECTION
  2
ENTITIES
  0
POLYLINE
  8
116
 66
1
 10
0.0000
 20
0.0000
 30
0.0000
 40
0.0560
 41
0.0560
 70
0
  0
VERTEX
  8
116
 10
32.7900
 20
7.0520
 30
0.0000
 42
1.0000
  0
VERTEX
  8
116
 10
32.7900
 20
7.9080
 30
0.0000
 42
1.0000
  0
VERTEX
  8
116
 10
32.7900
 20
7.0520
 30
0.0000
  0
SEQEND
  8
0
  0
POLYLINE
  8
116
 66
1
 10
0.0000
 20
0.0000
 30
0.0000
 40
0.0560
 41
0.0560
 70
0
  0
VERTEX
  8
116
 10
27.7100
 20
7.0520
 30
0.0000
 42
1.0000
  0
VERTEX
  8
116
 10
27.7100
 20
7.9080
 30
0.0000
 42
1.0000
  0
VERTEX
  8
116
 10
27.7100
 20
7.0520
 30
0.0000
  0
SEQEND
  8
0
  0
POLYLINE
  8
116
 66
1
 10
0.0000
 20
0.0000
 30
0.0000
 40
0.1580
 41
0.1580
 70
0
  0
VERTEX
  8
116
 10
16.2400
 20
19.3910
 30
0.0000
 42
1.0000
  0
VERTEX
  8
116
 10
16.2400
 20
20.3490
 30
0.0000
 42
1.0000
  0
VERTEX
  8
116
 10
16.2400
 20
19.3910
 30
0.0000
  0
SEQEND
  8
0
  0
POLYLINE
  8
116
 66
1
 10
0.0000
 20
0.0000
 30
0.0000
 40
0.1580
 41
0.1580
 70
0
  0
VERTEX
  8
116
 10
13.7000
 20
19.3910
 30
0.0000
 42
1.0000
  0
VERTEX
  8
116
 10
13.7000
 20
20.3490
 30
0.0000
 42
1.0000
  0
VERTEX
  8
116
 10
13.7000
 20
19.3910
 30
0.0000
  0
SEQEND
  8
0
  0
POLYLINE
  8
116
 66
1
 10
0.0000
 20
0.0000
 30
0.0000
 40
0.1580
 41
0.1580
 70
0
  0
VERTEX
  8
116
 10
11.1600
 20
19.3910
 30
0.0000
 42
1.0000
  0
VERTEX
  8
116
 10
11.1600
 20
20.3490
 30
0.0000
 42
1.0000
  0
VERTEX
  8
116
 10
11.1600
 20
19.3910
 30
0.0000
  0
SEQEND
  8
0
  0
POLYLINE
  8
116
 66
1
 10
0.0000
 20
0.0000
 30
0.0000
 40
0.1580
 41
0.1580
 70
0
  0
VERTEX
  8
116
 10
8.6200
 20
19.3910
 30
0.0000
 42
1.0000
  0
VERTEX
  8
116
 10
8.6200
 20
20.3490
 30
0.0000
 42
1.0000
  0
VERTEX
  8
116
 10
8.6200
 20
19.3910
 30
0.0000
  0
SEQEND
  8
0
  0
POLYLINE
  8
116
 66
1
 10
0.0000
 20
0.0000
 30
0.0000
 40
0.1580
 41
0.1580
 70
0
  0
VERTEX
  8
116
 10
6.0800
 20
19.3910
 30
0.0000
 42
1.0000
  0
VERTEX
  8
116
 10
6.0800
 20
20.3490
 30
0.0000
 42
1.0000
  0
VERTEX
  8
116
 10
6.0800
 20
19.3910
 30
0.0000
  0
SEQEND
  8
0
  0
POLYLINE
  8
116
 66
1
 10
0.0000
 20
0.0000
 30
0.0000
 40
0.1580
 41
0.1580
 70
0
  0
VERTEX
  8
116
 10
3.5400
 20
19.3910
 30
0.0000
 42
1.0000
  0
VERTEX
  8
116
 10
3.5400
 20
20.3490
 30
0.0000
 42
1.0000
  0
VERTEX
  8
116
 10
3.5400
 20
19.3910
 30
0.0000
  0
SEQEND
  8
0
  0
POLYLINE
  8
116
 66
1
 10
0.0000
 20
0.0000
 30
0.0000
 40
0.1580
 41
0.1580
 70
0
  0
VERTEX
  8
116
 10
23.7800
 20
20.2510
 30
0.0000
 42
1.0000
  0
VERTEX
  8
116
 10
23.7800
 20
21.2090
 30
0.0000
 42
1.0000
  0
VERTEX
  8
116
 10
23.7800
 20
20.2510
 30
0.0000
  0
SEQEND
  8
0
  0
POLYLINE
  8
116
 66
1
 10
0.0000
 20
0.0000
 30
0.0000
 40
0.1580
 41
0.1580
 70
0
  0
VERTEX
  8
116
 10
26.3200
 20
20.2510
 30
0.0000
 42
1.0000
  0
VERTEX
  8
116
 10
26.3200
 20
21.2090
 30
0.0000
 42
1.0000
  0
VERTEX
  8
116
 10
26.3200
 20
20.2510
 30
0.0000
  0
SEQEND
  8
0
  0
POLYLINE
  8
116
 66
1
 10
0.0000
 20
0.0000
 30
0.0000
 40
0.1580
 41
0.1580
 70
0
  0
VERTEX
  8
116
 10
28.8600
 20
20.2510
 30
0.0000
 42
1.0000
  0
VERTEX
  8
116
 10
28.8600
 20
21.2090
 30
0.0000
 42
1.0000
  0
VERTEX
  8
116
 10
28.8600
 20
20.2510
 30
0.0000
  0
SEQEND
  8
0
  0
POLYLINE
  8
116
 66
1
 10
0.0000
 20
0.0000
 30
0.0000
 40
0.1580
 41
0.1580
 70
0
  0
VERTEX
  8
116
 10
31.4000
 20
20.2510
 30
0.0000
 42
1.0000
  0
VERTEX
  8
116
 10
31.4000
 20
21.2090
 30
0.0000
 42
1.0000
  0
VERTEX
  8
116
 10
31.4000
 20
20.2510
 30
0.0000
  0
SEQEND
  8
0
  0
POLYLINE
  8
116
 66
1
 10
0.0000
 20
0.0000
 30
0.0000
 40
0.1580
 41
0.1580
 70
0
  0
VERTEX
  8
116
 10
33.9400
 20
20.2510
 30
0.0000
 42
1.0000
  0
VERTEX
  8
116
 10
33.9400
 20
21.2090
 30
0.0000
 42
1.0000
  0
VERTEX
  8
116
 10
33.9400
 20
20.2510
 30
0.0000
  0
SEQEND
  8
0
  0
POLYLINE
  8
116
 66
1
 10
0.0000
 20
0.0000
 30
0.0000
 40
0.1580
 41
0.1580
 70
0
  0
VERTEX
  8
116
 10
36.4800
 20
20.2510
 30
0.0000
 42
1.0000
  0
VERTEX
  8
116
 10
36.4800
 20
21.2090
 30
0.0000
 42
1.0000
  0
VERTEX
  8
116
 10
36.4800
 20
20.2510
 30
0.0000
  0
SEQEND
  8
0
  0
POLYLINE
  8
116
 66
1
 10
0.0000
 20
0.0000
 30
0.0000
 40
0.0560
 41
0.0560
 70
0
  0
VERTEX
  8
116
 10
35.4200
 20
7.0320
 30
0.0000
 42
1.0000
  0
VERTEX
  8
116
 10
35.4200
 20
7.8880
 30
0.0000
 42
1.0000
  0
VERTEX
  8
116
 10
35.4200
 20
7.0320
 30
0.0000
  0
SEQEND
  8
0
  0
POLYLINE
  8
116
 66
1
 10
0.0000
 20
0.0000
 30
0.0000
 40
0.0560
 41
0.0560
 70
0
  0
VERTEX
  8
116
 10
35.4200
 20
17.1920
 30
0.0000
 42
1.0000
  0
VERTEX
  8
116
 10
35.4200
 20
18.0480
 30
0.0000
 42
1.0000
  0
VERTEX
  8
116
 10
35.4200
 20
17.1920
 30
0.0000
  0
SEQEND
  8
0
  0
POLYLINE
  8
116
 66
1
 10
0.0000
 20
0.0000
 30
0.0000
 40
0.0560
 41
0.0560
 70
0
  0
VERTEX
  8
116
 10
24.8600
 20
6.9220
 30
0.0000
 42
1.0000
  0
VERTEX
  8
116
 10
24.8600
 20
7.7780
 30
0.0000
 42
1.0000
  0
VERTEX
  8
116
 10
24.8600
 20
6.9220
 30
0.0000
  0
SEQEND
  8
0
  0
POLYLINE
  8
116
 66
1
 10
0.0000
 20
0.0000
 30
0.0000
 40
0.0560
 41
0.0560
 70
0
  0
VERTEX
  8
116
 10
24.8600
 20
17.0820
 30
0.0000
 42
1.0000
  0
VERTEX
  8
116
 10
24.8600
 20
17.9380
 30
0.0000
 42
1.0000
  0
VERTEX
  8
116
 10
24.8600
 20
17.0820
 30
0.0000
  0
SEQEND
  8
0
  0
POLYLINE
  8
116
 66
1
 10
0.0000
 20
0.0000
 30
0.0000
 40
0.3060
 41
0.3060
 70
0
  0
VERTEX
  8
116
 10
32.7900
 20
7.1770
 30
0.0000
 42
1.0000
  0
VERTEX
  8
116
 10
32.7900
 20
7.7830
 30
0.0000
 42
1.0000
  0
VERTEX
  8
116
 10
32.7900
 20
7.1770
 30
0.0000
  0
SEQEND
  8
0
  0
POLYLINE
  8
116
 66
1
 10
0.0000
 20
0.0000
 30
0.0000
 40
0.3060
 41
0.3060
 70
0
  0
VERTEX
  8
116
 10
27.7100
 20
7.1770
 30
0.0000
 42
1.0000
  0
VERTEX
  8
116
 10
27.7100
 20
7.7830
 30
0.0000
 42
1.0000
  0
VERTEX
  8
116
 10
27.7100
 20
7.1770
 30
0.0000
  0
SEQEND
  8
0
  0
POLYLINE
  8
116
 66
1
 10
0.0000
 20
0.0000
 30
0.0000
 40
0.4080
 41
0.4080
 70
0
  0
VERTEX
  8
116
 10
16.2400
 20
19.5160
 30
0.0000
 42
1.0000
  0
VERTEX
  8
116
 10
16.2400
 20
20.2240
 30
0.0000
 42
1.0000
  0
VERTEX
  8
116
 10
16.2400
 20
19.5160
 30
0.0000
  0
SEQEND
  8
0
  0
POLYLINE
  8
116
 66
1
 10
0.0000
 20
0.0000
 30
0.0000
 40
0.4080
 41
0.4080
 70
0
  0
VERTEX
  8
116
 10
13.7000
 20
19.5160
 30
0.0000
 42
1.0000
  0
VERTEX
  8
116
 10
13.7000
 20
20.2240
 30
0.0000
 42
1.0000
  0
VERTEX
  8
116
 10
13.7000
 20
19.5160
 30
0.0000
  0
SEQEND
  8
0
  0
POLYLINE
  8
116
 66
1
 10
0.0000
 20
0.0000
 30
0.0000
 40
0.4080
 41
0.4080
 70
0
  0
VERTEX
  8
116
 10
11.1600
 20
19.5160
 30
0.0000
 42
1.0000
  0
VERTEX
  8
116
 10
11.1600
 20
20.2240
 30
0.0000
 42
1.0000
  0
VERTEX
  8
116
 10
11.1600
 20
19.5160
 30
0.0000
  0
SEQEND
  8
0
  0
POLYLINE
  8
116
 66
1
 10
0.0000
 20
0.0000
 30
0.0000
 40
0.4080
 41
0.4080
 70
0
  0
VERTEX
  8
116
 10
8.6200
 20
19.5160
 30
0.0000
 42
1.0000
  0
VERTEX
  8
116
 10
8.6200
 20
20.2240
 30
0.0000
 42
1.0000
  0
VERTEX
  8
116
 10
8.6200
 20
19.5160
 30
0.0000
  0
SEQEND
  8
0
  0
POLYLINE
  8
116
 66
1
 10
0.0000
 20
0.0000
 30
0.0000
 40
0.4080
 41
0.4080
 70
0
  0
VERTEX
  8
116
 10
6.0800
 20
19.5160
 30
0.0000
 42
1.0000
  0
VERTEX
  8
116
 10
6.0800
 20
20.2240
 30
0.0000
 42
1.0000
  0
VERTEX
  8
116
 10
6.0800
 20
19.5160
 30
0.0000
  0
SEQEND
  8
0
  0
POLYLINE
  8
116
 66
1
 10
0.0000
 20
0.0000
 30
0.0000
 40
0.4080
 41
0.4080
 70
0
  0
VERTEX
  8
116
 10
3.5400
 20
19.5160
 30
0.0000
 42
1.0000
  0
VERTEX
  8
116
 10
3.5400
 20
20.2240
 30
0.0000
 42
1.0000
  0
VERTEX
  8
116
 10
3.5400
 20
19.5160
 30
0.0000
  0
SEQEND
  8
0
  0
POLYLINE
  8
116
 66
1
 10
0.0000
 20
0.0000
 30
0.0000
 40
0.4080
 41
0.4080
 70
0
  0
VERTEX
  8
116
 10
23.7800
 20
20.3760
 30
0.0000
 42
1.0000
  0
VERTEX
  8
116
 10
23.7800
 20
21.0840
 30
0.0000
 42
1.0000
  0
VERTEX
  8
116
 10
23.7800
 20
20.3760
 30
0.0000
  0
SEQEND
  8
0
  0
POLYLINE
  8
116
 66
1
 10
0.0000
 20
0.0000
 30
0.0000
 40
0.4080
 41
0.4080
 70
0
  0
VERTEX
  8
116
 10
26.3200
 20
20.3760
 30
0.0000
 42
1.0000
  0
VERTEX
  8
116
 10
26.3200
 20
21.0840
 30
0.0000
 42
1.0000
  0
VERTEX
  8
116
 10
26.3200
 20
20.3760
 30
0.0000
  0
SEQEND
  8
0
  0
POLYLINE
  8
116
 66
1
 10
0.0000
 20
0.0000
 30
0.0000
 40
0.4080
 41
0.4080
 70
0
  0
VERTEX
  8
116
 10
28.8600
 20
20.3760
 30
0.0000
 42
1.0000
  0
VERTEX
  8
116
 10
28.8600
 20
21.0840
 30
0.0000
 42
1.0000
  0
VERTEX
  8
116
 10
28.8600
 20
20.3760
 30
0.0000
  0
SEQEND
  8
0
  0
POLYLINE
  8
116
 66
1
 10
0.0000
 20
0.0000
 30
0.0000
 40
0.4080
 41
0.4080
 70
0
  0
VERTEX
  8
116
 10
31.4000
 20
20.3760
 30
0.0000
 42
1.0000
  0
VERTEX
  8
116
 10
31.4000
 20
21.0840
 30
0.0000
 42
1.0000
  0
VERTEX
  8
116
 10
31.4000
 20
20.3760
 30
0.0000
  0
SEQEND
  8
0
  0
POLYLINE
  8
116
 66
1
 10
0.0000
 20
0.0000
 30
0.0000
 40
0.4080
 41
0.4080
 70
0
  0
VERTEX
  8
116
 10
33.9400
 20
20.3760
 30
0.0000
 42
1.0000
  0
VERTEX
  8
116
 10
33.9400
 20
21.0840
 30
0.0000
 42
1.0000
  0
VERTEX
  8
116
 10
33.9400
 20
20.3760
 30
0.0000
  0
SEQEND
  8
0
  0
POLYLINE
  8
116
 66
1
 10
0.0000
 20
0.0000
 30
0.0000
 40
0.4080
 41
0.4080
 70
0
  0
VERTEX
  8
116
 10
36.4800
 20
20.3760
 30
0.0000
 42
1.0000
  0
VERTEX
  8
116
 10
36.4800
 20
21.0840
 30
0.0000
 42
1.0000
  0
VERTEX
  8
116
 10
36.4800
 20
20.3760
 30
0.0000
  0
SEQEND
  8
0
  0
POLYLINE
  8
116
 66
1
 10
0.0000
 20
0.0000
 30
0.0000
 40
0.3060
 41
0.3060
 70
0
  0
VERTEX
  8
116
 10
35.4200
 20
7.1570
 30
0.0000
 42
1.0000
  0
VERTEX
  8
116
 10
35.4200
 20
7.7630
 30
0.0000
 42
1.0000
  0
VERTEX
  8
116
 10
35.4200
 20
7.1570
 30
0.0000
  0
SEQEND
  8
0
  0
POLYLINE
  8
116
 66
1
 10
0.0000
 20
0.0000
 30
0.0000
 40
0.3060
 41
0.3060
 70
0
  0
VERTEX
  8
116
 10
35.4200
 20
17.3170
 30
0.0000
 42
1.0000
  0
VERTEX
  8
116
 10
35.4200
 20
17.9230
 30
0.0000
 42
1.0000
  0
VERTEX
  8
116
 10
35.4200
 20
17.3170
 30
0.0000
  0
SEQEND
  8
0
  0
POLYLINE
  8
116
 66
1
 10
0.0000
 20
0.0000
 30
0.0000
 40
0.3060
 41
0.3060
 70
0
  0
VERTEX
  8
116
 10
24.8600
 20
7.0470
 30
0.0000
 42
1.0000
  0
VERTEX
  8
116
 10
24.8600
 20
7.6530
 30
0.0000
 42
1.0000
  0
VERTEX
  8
116
 10
24.8600
 20
7.0470
 30
0.0000
  0
SEQEND
  8
0
  0
POLYLINE
  8
116
 66
1
 10
0.0000
 20
0.0000
 30
0.0000
 40
0.3060
 41
0.3060
 70
0
  0
VERTEX
  8
116
 10
24.8600
 20
17.2070
 30
0.0000
 42
1.0000
  0
VERTEX
  8
116
 10
24.8600
 20
17.8130
 30
0.0000
 42
1.0000
  0
VERTEX
  8
116
 10
24.8600
 20
17.2070
 30
0.0000
  0
SEQEND
  8
0
  0
POLYLINE
  8
116
 66
1
 10
0.0000
 20
0.0000
 30
0.0000
 40
0.0500
 41
0.0500
 70
0
  0
VERTEX
  8
116
 10
-3.0160
 20
-3.1910
 30
0.0000
 42
1.0000
  0
VERTEX
  8
116
 10
-3.0160
 20
-2.8410
 30
0.0000
 42
1.0000
  0
VERTEX
  8
116
 10
-3.0160
 20
-3.1910
 30
0.0000
  0
SEQEND
  8
0
  0
POLYLINE
  8
116
 66
1
 10
0.0000
 20
0.0000
 30
0.0000
 40
0.4560
 41
0.4560
 70
0
  0
VERTEX
  8
116
 10
32.7900
 20
7.2520
 30
0.0000
 42
1.0000
  0
VERTEX
  8
116
 10
32.7900
 20
7.7080
 30
0.0000
 42
1.0000
  0
VERTEX
  8
116
 10
32.7900
 20
7.2520
 30
0.0000
  0
SEQEND
  8
0
  0
POLYLINE
  8
116
 66
1
 10
0.0000
 20
0.0000
 30
0.0000
 40
0.4560
 41
0.4560
 70
0
  0
VERTEX
  8
116
 10
27.7100
 20
7.2520
 30
0.0000
 42
1.0000
  0
VERTEX
  8
116
 10
27.7100
 20
7.7080
 30
0.0000
 42
1.0000
  0
VERTEX
  8
116
 10
27.7100
 20
7.2520
 30
0.0000
  0
SEQEND
  8
0
  0
POLYLINE
  8
116
 66
1
 10
0.0000
 20
0.0000
 30
0.0000
 40
0.5580
 41
0.5580
 70
0
  0
VERTEX
  8
116
 10
16.2400
 20
19.5910
 30
0.0000
 42
1.0000
  0
VERTEX
  8
116
 10
16.2400
 20
20.1490
 30
0.0000
 42
1.0000
  0
VERTEX
  8
116
 10
16.2400
 20
19.5910
 30
0.0000
  0
SEQEND
  8
0
  0
POLYLINE
  8
116
 66
1
 10
0.0000
 20
0.0000
 30
0.0000
 40
0.5580
 41
0.5580
 70
0
  0
VERTEX
  8
116
 10
13.7000
 20
19.5910
 30
0.0000
 42
1.0000
  0
VERTEX
  8
116
 10
13.7000
 20
20.1490
 30
0.0000
 42
1.0000
  0
VERTEX
  8
116
 10
13.7000
 20
19.5910
 30
0.0000
  0
SEQEND
  8
0
  0
POLYLINE
  8
116
 66
1
 10
0.0000
 20
0.0000
 30
0.0000
 40
0.5580
 41
0.5580
 70
0
  0
VERTEX
  8
116
 10
11.1600
 20
19.5910
 30
0.0000
 42
1.0000
  0
VERTEX
  8
116
 10
11.1600
 20
20.1490
 30
0.0000
 42
1.0000
  0
VERTEX
  8
116
 10
11.1600
 20
19.5910
 30
0.0000
  0
SEQEND
  8
0
  0
POLYLINE
  8
116
 66
1
 10
0.0000
 20
0.0000
 30
0.0000
 40
0.5580
 41
0.5580
 70
0
  0
VERTEX
  8
116
 10
8.6200
 20
19.5910
 30
0.0000
 42
1.0000
  0
VERTEX
  8
116
 10
8.6200
 20
20.1490
 30
0.0000
 42
1.0000
  0
VERTEX
  8
116
 10
8.6200
 20
19.5910
 30
0.0000
  0
SEQEND
  8
0
  0
POLYLINE
  8
116
 66
1
 10
0.0000
 20
0.0000
 30
0.0000
 40
0.5580
 41
0.5580
 70
0
  0
VERTEX
  8
116
 10
6.0800
 20
19.5910
 30
0.0000
 42
1.0000
  0
VERTEX
  8
116
 10
6.0800
 20
20.1490
 30
0.0000
 42
1.0000
  0
VERTEX
  8
116
 10
6.0800
 20
19.5910
 30
0.0000
  0
SEQEND
  8
0
  0
POLYLINE
  8
116
 66
1
 10
0.0000
 20
0.0000
 30
0.0000
 40
0.5580
 41
0.5580
 70
0
  0
VERTEX
  8
116
 10
3.5400
 20
19.5910
 30
0.0000
 42
1.0000
  0
VERTEX
  8
116
 10
3.5400
 20
20.1490
 30
0.0000
 42
1.0000
  0
VERTEX
  8
116
 10
3.5400
 20
19.5910
 30
0.0000
  0
SEQEND
  8
0
  0
POLYLINE
  8
116
 66
1
 10
0.0000
 20
0.0000
 30
0.0000
 40
0.5580
 41
0.5580
 70
0
  0
VERTEX
  8
116
 10
23.7800
 20
20.4510
 30
0.0000
 42
1.0000
  0
VERTEX
  8
116
 10
23.7800
 20
21.0090
 30
0.0000
 42
1.0000
  0
VERTEX
  8
116
 10
23.7800
 20
20.4510
 30
0.0000
  0
SEQEND
  8
0
  0
POLYLINE
  8
116
 66
1
 10
0.0000
 20
0.0000
 30
0.0000
 40
0.5580
 41
0.5580
 70
0
  0
VERTEX
  8
116
 10
26.3200
 20
20.4510
 30
0.0000
 42
1.0000
  0
VERTEX
  8
116
 10
26.3200
 20
21.0090
 30
0.0000
 42
1.0000
  0
VERTEX
  8
116
 10
26.3200
 20
20.4510
 30
0.0000
  0
SEQEND
  8
0
  0
POLYLINE
  8
116
 66
1
 10
0.0000
 20
0.0000
 30
0.0000
 40
0.5580
 41
0.5580
 70
0
  0
VERTEX
  8
116
 10
28.8600
 20
20.4510
 30
0.0000
 42
1.0000
  0
VERTEX
  8
116
 10
28.8600
 20
21.0090
 30
0.0000
 42
1.0000
  0
VERTEX
  8
116
 10
28.8600
 20
20.4510
 30
0.0000
  0
SEQEND
  8
0
  0
POLYLINE
  8
116
 66
1
 10
0.0000
 20
0.0000
 30
0.0000
 40
0.5580
 41
0.5580
 70
0
  0
VERTEX
  8
116
 10
31.4000
 20
20.4510
 30
0.0000
 42
1.0000
  0
VERTEX
  8
116
 10
31.4000
 20
21.0090
 30
0.0000
 42
1.0000
  0
VERTEX
  8
116
 10
31.4000
 20
20.4510
 30
0.0000
  0
SEQEND
  8
0
  0
POLYLINE
  8
116
 66
1
 10
0.0000
 20
0.0000
 30
0.0000
 40
0.5580
 41
0.5580
 70
0
  0
VERTEX
  8
116
 10
33.9400
 20
20.4510
 30
0.0000
 42
1.0000
  0
VERTEX
  8
116
 10
33.9400
 20
21.0090
 30
0.0000
 42
1.0000
  0
VERTEX
  8
116
 10
33.9400
 20
20.4510
 30
0.0000
  0
SEQEND
  8
0
  0
POLYLINE
  8
116
 66
1
 10
0.0000
 20
0.0000
 30
0.0000
 40
0.5580
 41
0.5580
 70
0
  0
VERTEX
  8
116
 10
36.4800
 20
20.4510
 30
0.0000
 42
1.0000
  0
VERTEX
  8
116
 10
36.4800
 20
21.0090
 30
0.0000
 42
1.0000
  0
VERTEX
  8
116
 10
36.4800
 20
20.4510
 30
0.0000
  0
SEQEND
  8
0
  0
POLYLINE
  8
116
 66
1
 10
0.0000
 20
0.0000
 30
0.0000
 40
0.4560
 41
0.4560
 70
0
  0
VERTEX
  8
116
 10
35.4200
 20
7.2320
 30
0.0000
 42
1.0000
  0
VERTEX
  8
116
 10
35.4200
 20
7.6880
 30
0.0000
 42
1.0000
  0
VERTEX
  8
116
 10
35.4200
 20
7.2320
 30
0.0000
  0
SEQEND
  8
0
  0
POLYLINE
  8
116
 66
1
 10
0.0000
 20
0.0000
 30
0.0000
 40
0.4560
 41
0.4560
 70
0
  0
VERTEX
  8
116
 10
35.4200
 20
17.3920
 30
0.0000
 42
1.0000
  0
VERTEX
  8
116
 10
35.4200
 20
17.8480
 30
0.0000
 42
1.0000
  0
VERTEX
  8
116
 10
35.4200
 20
17.3920
 30
0.0000
  0
SEQEND
  8
0
  0
POLYLINE
  8
116
 66
1
 10
0.0000
 20
0.0000
 30
0.0000
 40
0.4560
 41
0.4560
 70
0
  0
VERTEX
  8
116
 10
24.8600
 20
7.1220
 30
0.0000
 42
1.0000
  0
VERTEX
  8
116
 10
24.8600
 20
7.5780
 30
0.0000
 42
1.0000
  0
VERTEX
  8
116
 10
24.8600
 20
7.1220
 30
0.0000
  0
SEQEND
  8
0
  0
POLYLINE
  8
116
 66
1
 10
0.0000
 20
0.0000
 30
0.0000
 40
0.4560
 41
0.4560
 70
0
  0
VERTEX
  8
116
 10
24.8600
 20
17.2820
 30
0.0000
 42
1.0000
  0
VERTEX
  8
116
 10
24.8600
 20
17.7380
 30
0.0000
 42
1.0000
  0
VERTEX
  8
116
 10
24.8600
 20
17.2820
 30
0.0000
  0
SEQEND
  8
0
  0
POLYLINE
  8
116
 66
1
 10
0.0000
 20
0.0000
 30
0.0000
 40
0.2000
 41
0.2000
 70
0
  0
VERTEX
  8
116
 10
-3.0160
 20
-3.1160
 30
0.0000
 42
1.0000
  0
VERTEX
  8
116
 10
-3.0160
 20
-2.9160
 30
0.0000
 42
1.0000
  0
VERTEX
  8
116
 10
-3.0160
 20
-3.1160
 30
0.0000
  0
SEQEND
  8
0
  0
INSERT
  8
17
  2
OCTAGONP
 10
32.7900
 20
7.4800
 30
0.0000
 41
1.6002
 42
1.6002
 43
1.0000
 50
180.0000
  0
INSERT
  8
17
  2
OCTAGONP
 10
32.7900
 20
7.4800
 30
0.0000
 41
1.6002
 42
1.6002
 43
1.0000
 50
180.0000
  0
INSERT
  8
17
  2
OCTAGONP
 10
27.7100
 20
7.4800
 30
0.0000
 41
1.6002
 42
1.6002
 43
1.0000
 50
180.0000
  0
INSERT
  8
17
  2
OCTAGONP
 10
27.7100
 20
7.4800
 30
0.0000
 41
1.6002
 42
1.6002
 43
1.0000
 50
180.0000
  0
INSERT
  8
32
  2
RECT
 10
6.0500
 20
6.9470
 30
0.0000
 41
4.0000
 42
0.8000
 43
1.0000
 50
270.0000
  0
INSERT
  8
32
  2
RECT
 10
7.1500
 20
6.9580
 30
0.0000
 41
4.0000
 42
0.8000
 43
1.0000
 50
270.0000
  0
INSERT
  8
32
  2
RECT
 10
8.3490
 20
6.9470
 30
0.0000
 41
4.0000
 42
0.8000
 43
1.0000
 50
270.0000
  0
INSERT
  8
32
  2
RECT
 10
9.4490
 20
6.8370
 30
0.0000
 41
4.2000
 42
0.8000
 43
1.0000
 50
270.0000
  0
INSERT
  8
32
  2
RECT
 10
10.5380
 20
6.9470
 30
0.0000
 41
4.0000
 42
0.8000
 43
1.0000
 50
270.0000
  0
INSERT
  8
32
  2
RECT
 10
11.6380
 20
6.8370
 30
0.0000
 41
4.2000
 42
0.8000
 43
1.0000
 50
270.0000
  0
INSERT
  8
32
  2
RECT
 10
12.8590
 20
6.9470
 30
0.0000
 41
4.0000
 42
0.8000
 43
1.0000
 50
270.0000
  0
INSERT
  8
32
  2
RECT
 10
13.9590
 20
6.9470
 30
0.0000
 41
4.0000
 42
0.8000
 43
1.0000
 50
270.0000
  0
INSERT
  8
17
  2
LONGP100
 10
16.2400
 20
19.8700
 30
0.0000
 41
1.5240
 42
1.5240
 43
1.0000
 50
270.0000
  0
INSERT
  8
17
  2
LONGP100
 10
16.2400
 20
19.8700
 30
0.0000
 41
1.5240
 42
1.5240
 43
1.0000
 50
270.0000
  0
INSERT
  8
17
  2
LONGP100
 10
13.7000
 20
19.8700
 30
0.0000
 41
1.5240
 42
1.5240
 43
1.0000
 50
270.0000
  0
INSERT
  8
17
  2
LONGP100
 10
13.7000
 20
19.8700
 30
0.0000
 41
1.5240
 42
1.5240
 43
1.0000
 50
270.0000
  0
INSERT
  8
17
  2
LONGP100
 10
11.1600
 20
19.8700
 30
0.0000
 41
1.5240
 42
1.5240
 43
1.0000
 50
270.0000
  0
INSERT
  8
17
  2
LONGP100
 10
11.1600
 20
19.8700
 30
0.0000
 41
1.5240
 42
1.5240
 43
1.0000
 50
270.0000
  0
INSERT
  8
17
  2
LONGP100
 10
8.6200
 20
19.8700
 30
0.0000
 41
1.5240
 42
1.5240
 43
1.0000
 50
270.0000
  0
INSERT
  8
17
  2
LONGP100
 10
8.6200
 20
19.8700
 30
0.0000
 41
1.5240
 42
1.5240
 43
1.0000
 50
270.0000
  0
INSERT
  8
17
  2
LONGP100
 10
6.0800
 20
19.8700
 30
0.0000
 41
1.5240
 42
1.5240
 43
1.0000
 50
270.0000
  0
INSERT
  8
17
  2
LONGP100
 10
6.0800
 20
19.8700
 30
0.0000
 41
1.5240
 42
1.5240
 43
1.0000
 50
270.0000
  0
INSERT
  8
17
  2
LONGP100
 10
3.5400
 20
19.8700
 30
0.0000
 41
1.5240
 42
1.5240
 43
1.0000
 50
270.0000
  0
INSERT
  8
17
  2
LONGP100
 10
3.5400
 20
19.8700
 30
0.0000
 41
1.5240
 42
1.5240
 43
1.0000
 50
270.0000
  0
INSERT
  8
17
  2
LONGP100
 10
23.7800
 20
20.7300
 30
0.0000
 41
1.5240
 42
1.5240
 43
1.0000
 50
90.0000
  0
INSERT
  8
17
  2
LONGP100
 10
23.7800
 20
20.7300
 30
0.0000
 41
1.5240
 42
1.5240
 43
1.0000
 50
90.0000
  0
INSERT
  8
17
  2
LONGP100
 10
26.3200
 20
20.7300
 30
0.0000
 41
1.5240
 42
1.5240
 43
1.0000
 50
90.0000
  0
INSERT
  8
17
  2
LONGP100
 10
26.3200
 20
20.7300
 30
0.0000
 41
1.5240
 42
1.5240
 43
1.0000
 50
90.0000
  0
INSERT
  8
17
  2
LONGP100
 10
28.8600
 20
20.7300
 30
0.0000
 41
1.5240
 42
1.5240
 43
1.0000
 50
90.0000
  0
INSERT
  8
17
  2
LONGP100
 10
28.8600
 20
20.7300
 30
0.0000
 41
1.5240
 42
1.5240
 43
1.0000
 50
90.0000
  0
INSERT
  8
17
  2
LONGP100
 10
31.4000
 20
20.7300
 30
0.0000
 41
1.5240
 42
1.5240
 43
1.0000
 50
90.0000
  0
INSERT
  8
17
  2
LONGP100
 10
31.4000
 20
20.7300
 30
0.0000
 41
1.5240
 42
1.5240
 43
1.0000
 50
90.0000
  0
INSERT
  8
17
  2
LONGP100
 10
33.9400
 20
20.7300
 30
0.0000
 41
1.5240
 42
1.5240
 43
1.0000
 50
90.0000
  0
INSERT
  8
17
  2
LONGP100
 10
33.9400
 20
20.7300
 30
0.0000
 41
1.5240
 42
1.5240
 43
1.0000
 50
90.0000
  0
INSERT
  8
17
  2
LONGP100
 10
36.4800
 20
20.7300
 30
0.0000
 41
1.5240
 42
1.5240
 43
1.0000
 50
90.0000
  0
INSERT
  8
17
  2
LONGP100
 10
36.4800
 20
20.7300
 30
0.0000
 41
1.5240
 42
1.5240
 43
1.0000
 50
90.0000
  0
INSERT
  8
17
  2
ROUNDP
 10
35.4200
 20
7.4600
 30
0.0000
 41
1.7780
 42
1.7780
 43
1.0000
 50
90.0000
  0
INSERT
  8
17
  2
ROUNDP
 10
35.4200
 20
7.4600
 30
0.0000
 41
1.7780
 42
1.7780
 43
1.0000
 50
90.0000
  0
INSERT
  8
17
  2
ROUNDP
 10
35.4200
 20
17.6200
 30
0.0000
 41
1.7780
 42
1.7780
 43
1.0000
 50
90.0000
  0
INSERT
  8
17
  2
ROUNDP
 10
35.4200
 20
17.6200
 30
0.0000
 41
1.7780
 42
1.7780
 43
1.0000
 50
90.0000
  0
INSERT
  8
17
  2
ROUNDP
 10
24.8600
 20
7.3500
 30
0.0000
 41
1.7780
 42
1.7780
 43
1.0000
 50
90.0000
  0
INSERT
  8
17
  2
ROUNDP
 10
24.8600
 20
7.3500
 30
0.0000
 41
1.7780
 42
1.7780
 43
1.0000
 50
90.0000
  0
INSERT
  8
17
  2
ROUNDP
 10
24.8600
 20
17.5100
 30
0.0000
 41
1.7780
 42
1.7780
 43
1.0000
 50
90.0000
  0
INSERT
  8
17
  2
ROUNDP
 10
24.8600
 20
17.5100
 30
0.0000
 41
1.7780
 42
1.7780
 43
1.0000
 50
90.0000
  0
INSERT
  8
31
  2
RECT
 10
33.1200
 20
12.4900
 30
0.0000
 41
1.6764
 42
0.8128
 43
1.0000
 50
180.0000
  0
INSERT
  8
31
  2
RECT
 10
33.1200
 20
16.3000
 30
0.0000
 41
1.6764
 42
0.8128
 43
1.0000
 50
180.0000
  0
INSERT
  8
31
  2
RECT
 10
27.4050
 20
13.7600
 30
0.0000
 41
1.6764
 42
0.8128
 43
1.0000
 50
180.0000
  0
INSERT
  8
31
  2
RECT
 10
33.1200
 20
13.7600
 30
0.0000
 41
1.6764
 42
0.8128
 43
1.0000
 50
180.0000
  0
INSERT
  8
31
  2
RECT
 10
27.4050
 20
16.3000
 30
0.0000
 41
1.6764
 42
0.8128
 43
1.0000
 50
180.0000
  0
INSERT
  8
31
  2
RECT
 10
27.4050
 20
15.0300
 30
0.0000
 41
1.6764
 42
0.8128
 43
1.0000
 50
180.0000
  0
INSERT
  8
31
  2
RECT
 10
27.4050
 20
12.4900
 30
0.0000
 41
1.6764
 42
0.8128
 43
1.0000
 50
180.0000
  0
INSERT
  8
31
  2
RECT
 10
33.1200
 20
15.0300
 30
0.0000
 41
1.6764
 42
0.8128
 43
1.0000
 50
180.0000
  0
ENDSEC
  0
EOF
